<?xml version="1.0" encoding="UTF-8" standalone="no"?>
<!-- Created with Inkscape (http://www.inkscape.org/) -->

<svg
   width="210mm"
   height="210mm"
   viewBox="0 0 210 210"
   version="1.1"
   id="svg5"
   xml:space="preserve"
   xmlns="http://www.w3.org/2000/svg"
   xmlns:svg="http://www.w3.org/2000/svg"><defs
     id="defs2" /><g
     id="layer1"><circle
       style="fill:#e4f1ff;fill-opacity:1;stroke:none;stroke-width:0.218908"
       id="path10"
       cx="105.15059"
       cy="105.03994"
       r="103.44347" /><g
       id="g9"
       transform="matrix(1.27574,0,0,1.27574,-27.434888,-29.961306)"><path
         style="fill:#cc0000"
         d="m 115.18743,59.792033 c 0,-0.09421 -0.0788,-0.171293 -0.17517,-0.171293 -0.0964,0 -0.17518,0.07708 -0.17518,0.171293 0,0.09421 0.0788,0.171293 0.17518,0.171293 0.0963,0 0.17517,-0.07708 0.17517,-0.171293 z"
         id="path9" /><path
         style="fill:#cc0000"
         d="m 117.99025,62.302729 c -1.81416,-0.49981 -3.04922,-1.838866 -4.578,-4.963469 -3.27504,-6.69372 -9.68788,-8.809384 -16.590701,-5.473453 -4.304464,2.08022 -5.018916,3.729145 -2.830472,6.532605 1.57064,2.012036 1.552417,2.136053 -0.437941,2.980457 -3.486724,1.479231 -7.246734,1.142429 -10.363124,-0.928274 -2.56706,-1.705688 -2.26823,-3.603132 1.34248,-8.524141 2.66947,-3.6382 3.57726,-4.527739 6.685889,-6.551434 8.894369,-5.79018 19.068929,-5.454326 26.182719,0.864272 4.17783,3.710827 7.25107,12.854708 5.09786,15.167809 -0.96326,1.034797 -2.72984,1.385716 -4.50871,0.895628 z"
         id="path8" /><path
         style="fill:#cc0000"
         d="m 63.335202,114.09192 c -0.89205,-0.87228 -0.88246,-1.14744 0.19103,-5.48138 2.429,-9.806469 6.95547,-23.867849 8.29588,-25.771031 0.78105,-1.108971 2.75879,-1.716213 5.10762,-1.56824 2.53372,0.15962 2.48821,0.594126 -1.23094,11.751609 -1.64234,4.927024 -5.50507,15.299022 -6.78521,18.219252 -1.34484,3.06783 -3.97913,4.41359 -5.57838,2.84979 z"
         id="path7" /><path
         style="fill:#cc0000"
         d="m 139.18209,114.57709 c -1.77313,-1.89289 -8.13013,-22.004838 -9.7479,-30.839897 -0.42015,-2.2945 1.67194,-3.231935 4.31496,-1.933475 1.41454,0.694932 2.92249,2.710038 2.68698,3.590662 -0.0892,0.333536 -0.0503,0.538821 0.0864,0.456189 0.13673,-0.08263 0.69099,1.343169 1.23169,3.168448 0.5407,1.825279 1.18922,4.012426 1.44114,4.860326 0.25193,0.8479 0.95532,3.699929 1.5631,6.337837 0.60778,2.63792 1.32678,5.72119 1.59777,6.85172 0.271,1.13054 0.59501,3.14322 0.72004,4.47263 0.22649,2.40834 0.22324,2.42047 -0.8946,3.34022 -1.4406,1.18531 -1.62109,1.16697 -2.99961,-0.30466 z"
         id="path6" /><path
         style="fill:#cc0000"
         d="m 54.576382,88.226673 c 0,-0.09421 -0.0788,-0.171293 -0.17518,-0.171293 -0.0964,0 -0.17518,0.07708 -0.17518,0.171293 0,0.09421 0.0788,0.171293 0.17518,0.171293 0.0964,0 0.17518,-0.07708 0.17518,-0.171293 z"
         id="path5" /><path
         style="fill:#cc0000"
         d="m 44.135862,115.73633 c -0.55204,-0.53981 -0.51468,-3.05652 0.0804,-5.41286 2.8915,-11.45029 5.66886,-18.312303 8.63158,-21.325978 1.66296,-1.691561 2.99536,-2.097613 3.79429,-1.156312 0.60928,0.717863 -4.63964,19.91662 -6.49255,23.74755 -1.68958,3.49322 -4.61763,5.51269 -6.01367,4.1476 z"
         id="path4" /><path
         style="fill:#cc0000"
         d="m 159.08207,116.45862 c -1.36763,-0.85655 -2.5241,-3.09143 -3.94071,-7.61543 -0.99578,-3.18007 -2.87176,-10.01243 -3.26209,-11.880573 -1.53017,-7.323498 -1.61463,-8.222065 -0.77284,-8.222065 0.82339,0 3.61816,2.691447 5.08229,4.894408 2.53185,3.809465 7.21642,20.47266 6.25658,22.25489 -0.80032,1.48602 -1.66515,1.63228 -3.36323,0.56877 z"
         id="path3" /><path
         style="fill:#003399"
         d="m 114.34699,154.57315 c -1.06099,-1.67866 -2.55762,-8.82776 -3.20322,-15.30116 -0.74429,-7.46287 -2.66952,-13.31258 -6.59285,-20.03194 l -0.89468,-1.53229 -0.93162,2.04617 c -0.51239,1.1254 -1.56701,3.89614 -2.34358,6.1572 l -1.411959,4.11104 -0.21267,10.96275 c -0.116969,6.02951 -0.353936,11.194 -0.526594,11.47663 -1.07344,1.75717 -2.404372,2.52136 -2.769747,1.59032 -0.221114,-0.56345 -1.104381,-8.3265 -1.642649,-14.43729 -0.215763,-2.44949 -0.559966,-5.75709 -0.764897,-7.35022 -0.548005,-4.26019 -0.0086,-8.46211 3.034442,-23.63737 0.886098,-4.41888 1.754947,-8.658382 1.930776,-9.421117 0.344502,-1.494435 0.259014,-1.836159 -3.023595,-12.086216 -1.639591,-5.119678 -2.83868,-8.025306 -3.784491,-9.170565 -0.561814,-0.680286 -0.570154,-0.67929 -1.169504,0.139658 -1.16627,1.593564 -3.01086,6.94649 -6.44483,18.702574 -3.54909,12.150236 -4.61502,14.843656 -6.11732,15.457446 -1.47772,0.60374 -3.31331,0.60507 -4.15536,0.003 -0.77159,-0.55169 -0.33107,-2.47353 3.38677,-14.775268 2.26947,-7.509309 4.76233,-16.883808 4.9194,-18.499645 l 0.0999,-1.027759 -2.978,0.04841 c -3.07951,0.05006 -5.20204,0.443113 -7.41317,1.372788 l -1.282,0.539019 -2.64883,7.927129 c -1.45686,4.35992 -3.27952,10.021472 -4.05036,12.581226 -3.21752,10.68457 -4.26696,12.76208 -6.64514,13.15497 -2.16652,0.35792 -2.94263,-0.22345 -2.65704,-1.9903 0.308,-1.90548 3.63755,-15.215429 5.41115,-21.631183 1.82536,-6.602967 1.82506,-6.691975 -0.0226,-6.691975 -1.8023,0 -4.706,1.470949 -7.74953,3.925746 -3.38539,2.730519 -4.87164,5.93556 -9.22071,19.883982 -2.75676,8.84156 -5.38331,12.22053 -8.02889,10.32892 -0.82175,-0.58756 -0.6131,-2.67073 0.84063,-8.39267 3.70408,-14.579397 6.05889,-19.744377 11.68136,-25.621567 8.77448,-9.17201 21.52941,-14.932379 39.72589,-17.940971 9.933657,-1.642423 12.06523,-2.120111 12.790053,-2.866265 0.809475,-0.833296 1.341375,-2.013761 1.341375,-2.976927 0,-0.810558 -2.332734,-3.404545 -3.061659,-3.404545 -0.894223,0 0.12084,-0.899225 2.108202,-1.867614 2.878127,-1.402438 6.018107,-1.054644 8.268727,0.915867 1.624,1.421882 1.97872,2.280321 3.04579,7.370902 0.26952,1.285811 1.52392,1.754973 8.41285,3.146514 19.9927,4.038458 26.75655,6.920104 35.59016,15.16269 9.03906,8.434286 10.37969,10.950128 15.91671,29.869456 2.46628,8.42698 2.47185,8.2188 -0.2149,8.02876 -3.85238,-0.27247 -4.4207,-1.32221 -8.40286,-15.521 -2.51847,-8.979865 -4.68633,-13.381033 -8.11182,-16.468545 -1.9338,-1.742992 -5.15781,-3.318812 -6.48585,-3.17013 -1.63848,0.183436 -1.33455,2.257093 2.71922,18.552615 2.83964,11.4149 2.90627,12.33801 0.90224,12.49929 -3.17825,0.25578 -4.46453,-1.96892 -7.43325,-12.85615 -3.16729,-11.615465 -5.92893,-20.443884 -6.73087,-21.517312 -0.699,-0.935629 -5.70725,-2.219837 -8.65709,-2.219837 -3.23155,0 -3.20519,1.058203 0.36274,14.559907 1.09543,4.145291 2.11769,8.076462 2.2717,8.735942 1.09001,4.66744 1.33963,5.88629 1.56216,7.62791 0.31026,2.42816 -0.33294,3.67743 -1.89336,3.67743 -2.06136,0 -3.74099,-3.76579 -7.79286,-17.471887 -4.55488,-15.407587 -6.0057,-18.922021 -6.75309,-16.358483 -1.72014,5.900052 -2.69569,10.853992 -3.35631,17.043655 -0.35434,3.3199 -0.31622,3.945687 0.49448,8.119115 1.40713,7.24378 1.76002,13.71987 1.76973,32.47733 0.009,16.42045 -0.15699,19.38629 -1.00675,18.04185 z"
         id="path2" /><path
         style="fill:#cc0000"
         d="m 86.764152,168.6807 c -0.38448,-0.45383 -0.48358,-2.73647 -0.49454,-11.39098 -0.0157,-12.42982 -0.25747,-15.2008 -2.06502,-23.6704 -0.75804,-3.55194 -0.69486,-7.58892 0.1754,-11.20642 1.52413,-6.33554 1.0394,-9.68227 -1.40441,-9.69657 -1.78214,-0.0104 -1.93678,-0.36633 -1.28531,-2.95803 1.68833,-6.71651 8.03393,-25.12878 8.66038,-25.12878 0.844432,0 4.489121,9.146534 3.971211,9.965952 -0.10833,0.171396 -0.05708,0.311629 0.113894,0.311629 0.77804,0 1.137341,3.428081 0.621553,5.930219 -5.331438,25.86334 -5.671438,28.65137 -4.241048,34.77662 1.198907,5.13397 1.56797,8.19083 1.933667,16.01608 0.42483,9.09062 0.362984,8.97891 3.651925,6.59624 4.631116,-3.35501 5.268966,-5.74598 5.285046,-19.81074 0.0106,-9.27512 0.0805,-10.5715 0.62256,-11.54055 0.94693,-1.69293 1.14431,-1.63021 2.63595,0.8376 3.25513,5.38537 3.32799,5.60807 3.61401,11.04554 0.17823,3.38845 0.48532,5.67535 0.96608,7.19431 0.68327,2.15881 1.96401,7.8097 2.33528,10.30371 0.29149,1.95804 0.87325,2.45841 3.06494,2.63613 2.96893,0.24075 2.85008,0.84852 2.99925,-15.33795 0.32113,-34.84384 0.38977,-33.32495 -1.7387,-38.47299 -1.78971,-4.32869 -1.03844,-16.930682 1.08587,-18.214468 1.20726,-0.72959 5.60379,13.855088 6.34651,21.053388 0.20604,1.99695 0.44867,15.1531 0.54444,29.52174 l 0.17276,25.91946 -0.98309,0.1946 c -4.66729,0.92391 -16.07092,2.33464 -16.61034,2.05486 -0.11644,-0.0604 -0.31402,-1.07812 -0.43906,-2.26161 -0.41072,-3.88731 -1.65173,-3.79621 -8.527612,0.62598 -1.579618,1.01593 -2.962265,1.84714 -3.072549,1.84714 -0.110285,0 -0.867434,0.41183 -1.682555,0.91519 -1.125199,0.69483 -5.254802,2.51067 -5.709802,2.51067 -0.0362,0 -0.28223,-0.25541 -0.54669,-0.56757 z"
         id="path1" /></g></g></svg>
