<?xml version="1.0" encoding="UTF-8" standalone="no"?>
<svg
   width="16"
   height="16"
   fill="currentColor"
   class="bi bi-robot"
   viewBox="0 0 16 16"
   version="1.1"
   id="svg2"
   sodipodi:docname="robot_mt.svg"
   inkscape:version="1.3.2 (091e20ef0f, 2023-11-25, custom)"
   xmlns:inkscape="http://www.inkscape.org/namespaces/inkscape"
   xmlns:sodipodi="http://sodipodi.sourceforge.net/DTD/sodipodi-0.dtd"
   xmlns="http://www.w3.org/2000/svg"
   xmlns:svg="http://www.w3.org/2000/svg">
  <defs
     id="defs2" />
  <sodipodi:namedview
     id="namedview2"
     pagecolor="#ffffff"
     bordercolor="#000000"
     borderopacity="0.25"
     inkscape:showpageshadow="2"
     inkscape:pageopacity="0.0"
     inkscape:pagecheckerboard="0"
     inkscape:deskcolor="#d1d1d1"
     inkscape:zoom="26.295533"
     inkscape:cx="8.0051618"
     inkscape:cy="7.9861472"
     inkscape:window-width="2560"
     inkscape:window-height="1403"
     inkscape:window-x="0"
     inkscape:window-y="0"
     inkscape:window-maximized="1"
     inkscape:current-layer="svg2" />
  <path
     d="m 6.4125656,11.468583 a 0.3968586,0.3968586 0 0 1 0.3968586,-0.396858 h 2.3811516 a 0.3968586,0.3968586 0 0 1 0,0.793717 H 6.8094242 A 0.3968586,0.3968586 0 0 1 6.4125656,11.468583 M 4.031414,7.9460665 c 0,-1.0334198 0.9802408,-1.8231684 2.0081045,-1.7271287 a 21.112877,21.112877 0 0 0 3.920963,0 C 10.988345,6.1228984 11.968586,6.9126467 11.968586,7.9460665 V 8.8643972 A 0.738157,0.738157 0 0 1 11.361392,9.6065228 C 10.690701,9.7231993 9.5040941,9.8811489 8,9.8811489 c -1.5040941,0 -2.6907012,-0.1587434 -3.3613924,-0.2746261 A 0.738157,0.738157 0 0 1 4.031414,8.8643972 Z M 7.6364775,7.2896624 A 0.19842929,0.19842929 0 0 0 7.4642409,7.3436352 L 6.734021,8.0579806 a 19.842929,19.842929 0 0 1 -1.4850448,-0.1452503 0.19842929,0.19842929 0 0 0 -0.053973,0.39289 c 0.4365444,0.060323 0.9778595,0.1182639 1.6033087,0.1531875 a 0.19842929,0.19842929 0 0 0 0.1500125,-0.056354 l 0.5984628,-0.584176 0.6722784,1.3572565 a 0.19842929,0.19842929 0 0 0 0.3206618,0.04921 L 9.2794721,8.4548391 a 19.842929,19.842929 0 0 0 1.5255239,-0.1492188 0.19842929,0.19842929 0 0 0 -0.05397,-0.39289 c -0.42702,0.058735 -0.9580169,0.115089 -1.5715602,0.1500126 A 0.19842929,0.19842929 0 0 0 9.0477067,8.1230654 L 8.4492439,8.7461334 7.7809341,7.3968142 A 0.19842929,0.19842929 0 0 0 7.6364775,7.2896624"
     id="path1"
     style="stroke-width:0.793717" />
  <path
     d="m 8.3968586,3.0281947 a 0.7937172,0.7937172 0 1 0 -0.7937172,0 V 3.92827 H 6.0157071 A 3.5717274,3.5717274 0 0 0 2.4439797,7.4999974 V 7.896856 A 0.7937172,0.7937172 0 0 0 1.6502624,8.6905732 v 1.5874348 a 0.7937172,0.7937172 0 0 0 0.7937173,0.793717 v 0.793717 a 1.5874344,1.5874344 0 0 0 1.5874343,1.587434 h 7.937172 a 1.5874344,1.5874344 0 0 0 1.587434,-1.587434 v -0.793717 a 0.7937172,0.7937172 0 0 0 0.793717,-0.793717 V 8.6905732 A 0.7937172,0.7937172 0 0 0 13.55602,7.896856 V 7.4999974 A 3.5717274,3.5717274 0 0 0 9.9842929,3.92827 H 8.3968586 Z m 4.3654444,4.4718027 v 4.3654446 a 0.7937172,0.7937172 0 0 1 -0.793717,0.793717 H 4.031414 A 0.7937172,0.7937172 0 0 1 3.2376968,11.865442 V 7.4999974 A 2.7780102,2.7780102 0 0 1 6.0157071,4.7219873 h 3.9685858 a 2.7780102,2.7780102 0 0 1 2.7780101,2.7780101"
     id="path2"
     style="stroke-width:0.793717" />
</svg>
